<svg viewBox="0 0 350 298" fill="none" xmlns="http://www.w3.org/2000/svg" xmlns:x-on="https://github.com/alpinejs/alpine"><style>text{white-space:pre;font-family:&quot;Inter&quot;,sans-serif;font-size:14.5px;font-weight:600;letter-spacing:-.03em;fill:#e2051c}.text--desktop{display:none}@media only screen and (min-width:768px){.text--mobile{display:none}.text--desktop{display:initial}}circle{fill:#fff;stroke:#e30a18;stroke-width:2}path:not(.spider_background){stroke:#e30a18;stroke-width:1.5;stroke-linecap:round}</style><g class="schemaProfile__spider"><g class="schemaProfile__spider_background"><path class="spider_background" d="M233.491 49h-99L85 136.009 134.491 223h99L283 136.009 233.491 49z" fill="#FFD7D5"/><path d="M205 181.102l1.136-.665 4.738-2.773 1.136-.665M156.938 95.227l1.136-.665 4.737-2.773 1.137-.665M210.793 97.453l-1.101-.722-4.592-3.009-1.101-.721M234 140v-6M162.875 181.07l-1.101-.721-4.591-3.009-1.102-.722M136 140v-6"/><path class="scale__horizontal" d="M83 137h202"/><path class="scale__diagonalpos" d="M133 225l16.774-29.034 68.439-119.932L235 47"/><path class="scale__diagonalneg" d="M134.109 47.938L235 225"/></g><circle cx="134" cy="48" r="9"/><circle cx="235" cy="48" r="9"/><circle cx="285" cy="137" r="9"/><circle cx="85" cy="137" r="9"/><circle cx="133" cy="223" r="9"/><circle cx="234" cy="223" r="9"/></g><text xml:space="preserve" role="button" x-on:click="openInt = true"><tspan class="text--mobile" x="0" y="161.273">Concevoir </tspan><tspan class="text--mobile" x="0" y="175.273">des interfaces </tspan> <tspan class="text--desktop" x="-110" y="141">Concevoir des interfaces </tspan></text><text xml:space="preserve" role="button" x-on:click="openProg = true"><tspan class="text--mobile" x="47" y="12.273">Programmer </tspan><tspan class="text--mobile" x="47" y="26.273">pour le web</tspan> <tspan class="text--desktop" x="-35" y="12.273">Programmer pour le web</tspan></text><text xml:space="preserve" role="button" x-on:click="openBusi = true"><tspan class="text--mobile" x="213" y="262.273">Imaginer et élaborer </tspan><tspan class="text--mobile" x="213" y="276.273">un business model</tspan> <tspan class="text--desktop" x="260" y="262.273">Imaginer et élaborer </tspan><tspan class="text--desktop" x="260" y="276.273">un business model</tspan></text><text xml:space="preserve" role="button" x-on:click="openCont = true"><tspan class="text--mobile" x="283" y="165.273">Créer des </tspan><tspan class="text--mobile" x="283" y="179.273">contenus</tspan> <tspan class="text--desktop" x="310" y="141">Créer des contenus</tspan></text><text xml:space="preserve" role="button" x-on:click="openStruct = true"><tspan class="text--mobile" x="9" y="262.273">Structurer et planifier</tspan><tspan class="text--mobile" x="9" y="276.273">des projets numériques</tspan> <tspan class="text--desktop" x="-40" y="262.273">Structurer et planifier</tspan><tspan class="text--desktop" x="-40" y="276.273">des projets numériques</tspan></text><text xml:space="preserve" role="button" x-on:click="openMark = true"><tspan class="text--mobile" x="195" y="12.273">Marketing et</tspan><tspan class="text--mobile" x="195" y="26.273">communication digitale</tspan> <tspan class="text--desktop" x="260" y="12.273">Marketing et</tspan><tspan class="text--desktop" x="260" y="26.273">communication digitale</tspan></text></svg>