<?xml version="1.0" encoding="utf-8"?>
<!-- Generator: Adobe Illustrator 20.0.0, SVG Export Plug-In . SVG Version: 6.00 Build 0)  -->
<svg version="1.1" id="Livello_1" xmlns="http://www.w3.org/2000/svg" xmlns:xlink="http://www.w3.org/1999/xlink" x="0px" y="0px"
	 viewBox="0 0 141.7 141.7" style="enable-background:new 0 0 141.7 141.7;" xml:space="preserve">
<style type="text/css">
	.st0{fill:#60A7FC;}
</style>
<g id="Livello_52">
	<g>
		<path class="st0" d="M123.1,74.5c0,4.8-3.9,8.8-8.8,8.8c-4.8,0-8.8-3.9-8.8-8.8c0-4.8,3.9-8.8,8.8-8.8
			C119.1,65.7,123.1,69.6,123.1,74.5 M82.1,93.5c0,3.2-2.6,5.8-5.8,5.8c-3.2,0-5.9-2.6-5.9-5.8c0-3.2,2.6-5.8,5.9-5.8
			C79.5,87.6,82.1,90.2,82.1,93.5 M70.9,112.3c3,0,5.5,2.4,5.5,5.5c0,3-2.4,5.5-5.5,5.5s-5.5-2.4-5.5-5.5
			C65.4,114.8,67.9,112.3,70.9,112.3 M64.6,22.8c0,4.8-3.9,8.8-8.8,8.8c-4.8,0-8.8-3.9-8.8-8.8c0-4.8,3.9-8.8,8.8-8.8
			C60.6,14.1,64.6,18,64.6,22.8 M46.7,68.9c1.5,0,2.7,1.2,2.7,2.7c0,1.5-1.2,2.7-2.7,2.7c-1.5,0-2.7-1.2-2.7-2.7
			C44,70.1,45.2,68.9,46.7,68.9 M44,98.8c0,4.5-3.7,8.2-8.2,8.2c-4.5,0-8.2-3.6-8.2-8.2s3.6-8.2,8.2-8.2C40.4,90.6,44,94.3,44,98.8
			 M36.7,51.5c0,3-2.4,5.5-5.5,5.5s-5.5-2.4-5.5-5.5c0-3,2.4-5.5,5.5-5.5C34.2,46.1,36.7,48.5,36.7,51.5 M134.5,45L72.2,69.9
			L97.7,6.3c-8.6-3.8-18.1-5.9-28.1-5.9C31.2,0.4,0,31.5,0,70s31.2,69.6,69.6,69.6c38.4,0,69.6-31.2,69.6-69.6
			C139.2,61.2,137.5,52.7,134.5,45"/>
		<path class="st0" d="M116.7,22.9c0,3.2-2.6,5.7-5.7,5.7c-3.2,0-5.7-2.6-5.7-5.7s2.6-5.7,5.7-5.7S116.7,19.8,116.7,22.9 M104.2,43
			c0,2.1-1.7,3.8-3.8,3.8c-2.1,0-3.8-1.7-3.8-3.8s1.7-3.8,3.8-3.8C102.5,39.2,104.2,40.9,104.2,43 M140,37.8
			C133.5,20.9,120.6,7.3,104.2,0L79.6,62.2L140,37.8z"/>
	</g>
</g>
<g id="Livello_1_1_">
</g>
</svg>
