<?xml version="1.0" encoding="utf-8"?>
<!-- Generator: Adobe Illustrator 20.0.0, SVG Export Plug-In . SVG Version: 6.00 Build 0)  -->
<svg version="1.1" id="Layer_1" xmlns="http://www.w3.org/2000/svg" xmlns:xlink="http://www.w3.org/1999/xlink" x="0px" y="0px"
	 viewBox="0 0 100 100" style="enable-background:new 0 0 100 100;" xml:space="preserve">
<style type="text/css">
	.st0{fill:#60A7FC;}
</style>
<g>
	<path class="st0" d="M14,42.5c3.6,0,6.5-2.9,6.5-6.5s-2.9-6.5-6.5-6.5S7.5,32.4,7.5,36S10.4,42.5,14,42.5z M14,31.5
		c2.5,0,4.5,2,4.5,4.5s-2,4.5-4.5,4.5s-4.5-2-4.5-4.5S11.5,31.5,14,31.5z"/>
	<path class="st0" d="M27,45v-8h-0.1c0-0.3,0.1-0.7,0.1-1c0-7.2-5.8-13-13-13C7.2,23,1.6,28.3,1.1,35H1v22.9c0,6.9,5.3,12.6,12,13.1
		V71h85V45H27z M14,27c5,0,9,4,9,9s-4,9-9,9s-9-4-9-9S9,27,14,27z M5,57.9V45.4c1.4,1.3,3.1,2.4,5,3V52h2v-3.2
		c0.3,0.1,0.7,0.1,1,0.1v0h13v3h2v-3h14v3h2v-3h14v3h2v-3h14v3h2v-3h6v18h-6v-5h-2v5h-6v-3h-2v3h-6v-5h-2v5h-6v-3h-2v3h-6v-5h-2v5
		h-6v-3h-2v3h-6v-5h-2v5h-6v-3h-2v3h-4v0c-0.7,0-1.4-0.1-2-0.2V62h-2v4C7,64.5,5,61.4,5,57.9z M94,67H84V49h10V67z"/>
	<path class="st0" d="M89,61c1.7,0,3-1.3,3-3s-1.3-3-3-3s-3,1.3-3,3S87.3,61,89,61z M89,57c0.6,0,1,0.4,1,1s-0.4,1-1,1s-1-0.4-1-1
		S88.4,57,89,57z"/>
</g>
</svg>
