<svg width="43" height="36" viewBox="0 0 43 36" fill="none" xmlns="http://www.w3.org/2000/svg">
<path fill-rule="evenodd" clip-rule="evenodd" d="M21.4561 10.575C16.0313 10.575 11.6336 14.9727 11.6336 20.3975C11.6336 25.8223 16.0313 30.22 21.4561 30.22C26.8809 30.22 31.2786 25.8223 31.2786 20.3975C31.2786 14.9727 26.8809 10.575 21.4561 10.575ZM10.4336 20.3975C10.4336 14.31 15.3685 9.375 21.4561 9.375C27.5437 9.375 32.4786 14.31 32.4786 20.3975C32.4786 26.4851 27.5437 31.42 21.4561 31.42C15.3685 31.42 10.4336 26.4851 10.4336 20.3975Z" fill="#E30A18"/>
<path fill-rule="evenodd" clip-rule="evenodd" d="M21.4604 14.0867C17.9748 14.0867 15.1492 16.9123 15.1492 20.3979C15.1492 23.8835 17.9748 26.7091 21.4604 26.7091C24.946 26.7091 27.7716 23.8835 27.7716 20.3979C27.7716 16.9123 24.946 14.0867 21.4604 14.0867ZM13.9492 20.3979C13.9492 16.2496 17.3121 12.8867 21.4604 12.8867C25.6087 12.8867 28.9716 16.2496 28.9716 20.3979C28.9716 24.5462 25.6087 27.9091 21.4604 27.9091C17.3121 27.9091 13.9492 24.5462 13.9492 20.3979Z" fill="#E30A18"/>
<path fill-rule="evenodd" clip-rule="evenodd" d="M14.2392 2.14068C14.5062 1.02234 15.733 0.400391 16.9121 0.400391H26.0023C27.1814 0.400391 28.4083 1.02236 28.6753 2.14071L29.5848 5.94942H41.9165C42.2478 5.94942 42.5165 6.21805 42.5165 6.54942V34.5358C42.5165 34.8672 42.2478 35.1358 41.9165 35.1358H0.998438C0.667067 35.1358 0.398438 34.8672 0.398438 34.5358V6.54942C0.398438 6.21805 0.667067 5.94942 0.998438 5.94942H13.3296L14.2392 2.14071C14.2392 2.1407 14.2392 2.14069 14.2392 2.14068ZM16.9121 1.60039C16.0289 1.60039 15.4926 2.05831 15.4063 2.41938L15.4063 2.41941L14.3868 6.68878C14.3223 6.95887 14.0809 7.14942 13.8032 7.14942H1.59844V33.9358H41.3165V7.14942H29.1113C28.8336 7.14942 28.5922 6.95887 28.5277 6.68879L27.5081 2.41941L27.5081 2.41938C27.4219 2.05831 26.8856 1.60039 26.0023 1.60039H16.9121Z" fill="#E30A18"/>
<path fill-rule="evenodd" clip-rule="evenodd" d="M17.8398 5.24648C17.8398 4.91511 18.1085 4.64648 18.4398 4.64648H24.4714C24.8028 4.64648 25.0714 4.91511 25.0714 5.24648C25.0714 5.57786 24.8028 5.84648 24.4714 5.84648H18.4398C18.1085 5.84648 17.8398 5.57786 17.8398 5.24648Z" fill="#E30A18"/>
<path fill-rule="evenodd" clip-rule="evenodd" d="M29.3867 26.391C29.3867 26.0596 29.6553 25.791 29.9867 25.791H41.9176C42.249 25.791 42.5176 26.0596 42.5176 26.391C42.5176 26.7224 42.249 26.991 41.9176 26.991H29.9867C29.6553 26.991 29.3867 26.7224 29.3867 26.391Z" fill="#E30A18"/>
<path fill-rule="evenodd" clip-rule="evenodd" d="M0.398438 26.391C0.398438 26.0596 0.667067 25.791 0.998438 25.791H12.758C13.0894 25.791 13.358 26.0596 13.358 26.391C13.358 26.7224 13.0894 26.991 12.758 26.991H0.998438C0.667067 26.991 0.398438 26.7224 0.398438 26.391Z" fill="#E30A18"/>
<path fill-rule="evenodd" clip-rule="evenodd" d="M6.6751 2.80742C6.23347 2.80742 5.87578 3.16511 5.87578 3.60674V5.95014H9.16326V3.60674C9.16326 3.16511 8.80557 2.80742 8.36394 2.80742H6.6751ZM4.67578 3.60674C4.67578 2.50237 5.57073 1.60742 6.6751 1.60742H8.36394C9.46831 1.60742 10.3633 2.50237 10.3633 3.60674V6.55014C10.3633 6.88151 10.0946 7.15014 9.76326 7.15014H5.27578C4.94441 7.15014 4.67578 6.88151 4.67578 6.55014V3.60674Z" fill="#E30A18"/>
<path fill-rule="evenodd" clip-rule="evenodd" d="M31.5039 3.79922C31.5039 3.46785 31.7725 3.19922 32.1039 3.19922H39.4383C39.7696 3.19922 40.0383 3.46785 40.0383 3.79922V6.54961C40.0383 6.88098 39.7696 7.14961 39.4383 7.14961H32.1039C31.7725 7.14961 31.5039 6.88098 31.5039 6.54961V3.79922ZM32.7039 4.39922V5.94961H38.8383V4.39922H32.7039Z" fill="#E30A18"/>
<path fill-rule="evenodd" clip-rule="evenodd" d="M34.5938 9.34805C34.5938 9.01668 34.8624 8.74805 35.1938 8.74805H39.247C39.5783 8.74805 39.847 9.01668 39.847 9.34805V13.4012C39.847 13.7326 39.5783 14.0012 39.247 14.0012H35.1938C34.8624 14.0012 34.5938 13.7326 34.5938 13.4012V9.34805ZM35.7938 9.94805V12.8012H38.647V9.94805H35.7938Z" fill="#E30A18"/>
</svg>
