<svg width="49" height="43" viewBox="0 0 49 43" fill="none" xmlns="http://www.w3.org/2000/svg">
<path fill-rule="evenodd" clip-rule="evenodd" d="M7.21308 1.60039C6.22427 1.60039 5.42266 2.402 5.42266 3.39082V25.6221C5.42266 26.611 6.22427 27.4126 7.21308 27.4126H41.5881C42.5769 27.4126 43.3785 26.611 43.3785 25.6221V3.39082C43.3785 2.402 42.5769 1.60039 41.5881 1.60039H7.21308ZM4.22266 3.39082C4.22266 1.73926 5.56152 0.400391 7.21308 0.400391H41.5881C43.2396 0.400391 44.5785 1.73926 44.5785 3.39082V25.6221C44.5785 27.2737 43.2396 28.6126 41.5881 28.6126H7.21308C5.56152 28.6126 4.22266 27.2737 4.22266 25.6221V3.39082Z" fill="#E30A18"/>
<path fill-rule="evenodd" clip-rule="evenodd" d="M6.97266 3.96523C6.97266 3.63386 7.24129 3.36523 7.57266 3.36523H41.2302C41.5615 3.36523 41.8302 3.63386 41.8302 3.96523V25.0491C41.8302 25.3805 41.5615 25.6491 41.2302 25.6491H7.57266C7.24129 25.6491 6.97266 25.3805 6.97266 25.0491V3.96523ZM8.17266 4.56523V24.4491H40.6302V4.56523H8.17266Z" fill="#E30A18"/>
<path fill-rule="evenodd" clip-rule="evenodd" d="M6.96919 28.6121C5.96288 28.6121 5.07687 29.275 4.79299 30.2403C4.78981 30.2511 4.78632 30.2618 4.78254 30.2725L1.84923 38.5034H46.9524L44.0187 30.2725C44.0149 30.2619 44.0114 30.2511 44.0082 30.2403C43.7244 29.275 42.8383 28.6121 41.832 28.6121H6.96919ZM3.64677 29.8848C4.08624 28.4178 5.43658 27.4121 6.96919 27.4121H41.832C43.3647 27.4121 44.715 28.4178 45.1545 29.8848L48.3684 38.902C48.4339 39.0857 48.406 39.2898 48.2936 39.4492C48.1812 39.6086 47.9983 39.7034 47.8033 39.7034H0.998441C0.803395 39.7034 0.62052 39.6086 0.50811 39.4492C0.395699 39.2898 0.367783 39.0857 0.433259 38.902L3.64677 29.8848Z" fill="#E30A18"/>
<path fill-rule="evenodd" clip-rule="evenodd" d="M6.32791 30.7843C6.403 30.5289 6.63736 30.3535 6.90354 30.3535H41.9001C42.1662 30.3535 42.4006 30.5289 42.4757 30.7843L43.4316 34.035C43.4849 34.2164 43.4496 34.4124 43.3363 34.5638C43.223 34.7152 43.045 34.8043 42.8559 34.8043H5.94766C5.75858 34.8043 5.58055 34.7152 5.46727 34.5638C5.35398 34.4124 5.31869 34.2164 5.37203 34.035L6.32791 30.7843ZM7.35251 31.5535L6.74949 33.6043H42.0541L41.4511 31.5535H7.35251Z" fill="#E30A18"/>
<path fill-rule="evenodd" clip-rule="evenodd" d="M0.398438 39.0824C0.398438 38.7511 0.667067 38.4824 0.998438 38.4824H47.8033C48.1346 38.4824 48.4033 38.7511 48.4033 39.0824V39.3691C48.4033 41.2845 46.8502 42.8377 44.9347 42.8377H3.86704C1.95155 42.8377 0.398438 41.2845 0.398438 39.3691V39.0824ZM1.61991 39.6824C1.77258 40.7869 2.72061 41.6377 3.86704 41.6377H44.9347C46.0811 41.6377 47.0291 40.7869 47.1818 39.6824H1.61991Z" fill="#E30A18"/>
<path fill-rule="evenodd" clip-rule="evenodd" d="M18.5664 39.0805C18.5664 38.7491 18.835 38.4805 19.1664 38.4805H29.6367C29.9681 38.4805 30.2367 38.7491 30.2367 39.0805V42.2357C30.2367 42.5671 29.9681 42.8357 29.6367 42.8357H19.1664C18.835 42.8357 18.5664 42.5671 18.5664 42.2357V39.0805ZM19.7664 39.6805V41.6357H29.0367V39.6805H19.7664Z" fill="#E30A18"/>
</svg>
