<svg width="50" height="46" viewBox="0 0 50 46" fill="none" xmlns="http://www.w3.org/2000/svg">
<path fill-rule="evenodd" clip-rule="evenodd" d="M3.92884 1.60039C2.64204 1.60039 1.59844 2.644 1.59844 3.93079V31.1835C1.59844 32.4703 2.64204 33.5139 3.92884 33.5139H32.9937C33.3251 33.5139 33.5937 33.7826 33.5937 34.1139C33.5937 34.4453 33.3251 34.7139 32.9937 34.7139H3.92884C1.9793 34.7139 0.398438 33.1331 0.398438 31.1835V3.93079C0.398438 1.98125 1.9793 0.400391 3.92884 0.400391H46.068C48.0176 0.400391 49.5984 1.98125 49.5984 3.93079V31.1835C49.5984 33.1331 48.0176 34.7139 46.068 34.7139H36.8021C36.4707 34.7139 36.2021 34.4453 36.2021 34.1139C36.2021 33.7826 36.4707 33.5139 36.8021 33.5139H46.068C47.3548 33.5139 48.3984 32.4703 48.3984 31.1835V3.93079C48.3984 2.644 47.3548 1.60039 46.068 1.60039H3.92884Z" fill="#E30A18"/>
<path fill-rule="evenodd" clip-rule="evenodd" d="M7.73047 7.54336C7.73047 7.21199 7.9991 6.94336 8.33047 6.94336H45.631C45.9623 6.94336 46.231 7.21199 46.231 7.54336V30.4808C46.231 30.8122 45.9623 31.0808 45.631 31.0808H35.0768C34.7455 31.0808 34.4768 30.8122 34.4768 30.4808C34.4768 30.1494 34.7455 29.8808 35.0768 29.8808H45.031V8.14336H8.93047V29.8808H31.2773C31.6086 29.8808 31.8773 30.1494 31.8773 30.4808C31.8773 30.8122 31.6086 31.0808 31.2773 31.0808H8.33047C7.9991 31.0808 7.73047 30.8122 7.73047 30.4808V7.54336Z" fill="#E30A18"/>
<path fill-rule="evenodd" clip-rule="evenodd" d="M0.398438 7.54336C0.398438 7.21199 0.667067 6.94336 0.998438 6.94336H48.9984C49.3298 6.94336 49.5984 7.21199 49.5984 7.54336C49.5984 7.87473 49.3298 8.14336 48.9984 8.14336H0.998438C0.667067 8.14336 0.398438 7.87473 0.398438 7.54336Z" fill="#E30A18"/>
<path fill-rule="evenodd" clip-rule="evenodd" d="M26.2315 15.7465C26.4695 15.6346 26.7526 15.6908 26.9299 15.885L30.7353 20.0544C30.7759 20.0988 30.8096 20.1492 30.8352 20.2036L41.0934 42.0305C41.6262 43.1654 41.1389 44.5173 40.0046 45.051C38.8696 45.5846 37.5167 45.0973 36.9836 43.9619L26.7256 22.1353C26.6999 22.0808 26.6827 22.0228 26.6744 21.9632L25.8925 16.3726C25.8561 16.1121 25.9935 15.8583 26.2315 15.7465ZM27.3492 18.1244L27.8502 21.7071L38.0698 43.4517C38.3209 43.9866 38.9585 44.2168 39.4939 43.9651C40.0287 43.7134 40.2585 43.076 40.0072 42.5406L29.7878 20.7963L27.3492 18.1244Z" fill="#E30A18"/>
</svg>
