<svg width="45" height="44" viewBox="0 0 45 44" fill="none" xmlns="http://www.w3.org/2000/svg">
<path fill-rule="evenodd" clip-rule="evenodd" d="M0.398438 29.6703C0.398438 29.3389 0.667067 29.0703 0.998438 29.0703H11.7365C12.0679 29.0703 12.3365 29.3389 12.3365 29.6703V33.0721C12.3365 33.4035 12.0679 33.6721 11.7365 33.6721H0.998438C0.667067 33.6721 0.398438 33.4035 0.398438 33.0721V29.6703ZM1.59844 30.2703V32.4721H11.1365V30.2703H1.59844Z" fill="#E30A18"/>
<path fill-rule="evenodd" clip-rule="evenodd" d="M13.168 7.90859C13.168 7.57722 13.4366 7.30859 13.768 7.30859H24.5061C24.8374 7.30859 25.1061 7.57722 25.1061 7.90859V11.3104C25.1061 11.6418 24.8374 11.9104 24.5061 11.9104H13.768C13.4366 11.9104 13.168 11.6418 13.168 11.3104V7.90859ZM14.368 8.50859V10.7104H23.9061V8.50859H14.368Z" fill="#E30A18"/>
<path fill-rule="evenodd" clip-rule="evenodd" d="M34.5234 1.99648C34.5234 1.66511 34.7921 1.39648 35.1234 1.39648H43.128C43.4594 1.39648 43.728 1.66511 43.728 1.99648V5.39828C43.728 5.72965 43.4594 5.99828 43.128 5.99828H35.1234C34.7921 5.99828 34.5234 5.72965 34.5234 5.39828V1.99648ZM35.7234 2.59648V4.79828H42.528V2.59648H35.7234Z" fill="#E30A18"/>
<path fill-rule="evenodd" clip-rule="evenodd" d="M11.0977 23.727C11.0977 23.3956 11.3663 23.127 11.6977 23.127H36.4926C36.824 23.127 37.0926 23.3956 37.0926 23.727V27.1287C37.0926 27.4601 36.824 27.7287 36.4926 27.7287H11.6977C11.3663 27.7287 11.0977 27.4601 11.0977 27.1287V23.727ZM12.2977 24.327V26.5287H35.8926V24.327H12.2977Z" fill="#E30A18"/>
<path fill-rule="evenodd" clip-rule="evenodd" d="M2.625 17.7836C2.625 17.4522 2.89363 17.1836 3.225 17.1836H16.6179C16.9493 17.1836 17.2179 17.4522 17.2179 17.7836V21.1854C17.2179 21.5168 16.9493 21.7854 16.6179 21.7854H3.225C2.89363 21.7854 2.625 21.5168 2.625 21.1854V17.7836ZM3.825 18.3836V20.5854H16.0179V18.3836H3.825Z" fill="#E30A18"/>
<path fill-rule="evenodd" clip-rule="evenodd" d="M25.4258 12.6957C25.4258 12.3643 25.6944 12.0957 26.0258 12.0957H40.5903C40.9217 12.0957 41.1903 12.3643 41.1903 12.6957V16.0975C41.1903 16.4289 40.9217 16.6975 40.5903 16.6975H26.0258C25.6944 16.6975 25.4258 16.4289 25.4258 16.0975V12.6957ZM26.6258 13.2957V15.4975H39.9903V13.2957H26.6258Z" fill="#E30A18"/>
<path fill-rule="evenodd" clip-rule="evenodd" d="M20.8734 0.400391C21.2048 0.400391 21.4734 0.66902 21.4734 1.00039V42.5457C21.4734 42.8771 21.2048 43.1457 20.8734 43.1457C20.5421 43.1457 20.2734 42.8771 20.2734 42.5457V1.00039C20.2734 0.66902 20.5421 0.400391 20.8734 0.400391Z" fill="#E30A18"/>
<path fill-rule="evenodd" clip-rule="evenodd" d="M0.398438 37.393C0.398438 37.0616 0.667067 36.793 0.998438 36.793H44.028C44.3594 36.793 44.628 37.0616 44.628 37.393C44.628 37.7243 44.3594 37.993 44.028 37.993H0.998438C0.667067 37.993 0.398438 37.7243 0.398438 37.393Z" fill="#E30A18"/>
<path fill-rule="evenodd" clip-rule="evenodd" d="M0.398438 39.7055C0.398438 39.3741 0.667067 39.1055 0.998438 39.1055H6.11366C6.44503 39.1055 6.71366 39.3741 6.71366 39.7055C6.71366 40.0368 6.44503 40.3055 6.11366 40.3055H0.998438C0.667067 40.3055 0.398438 40.0368 0.398438 39.7055Z" fill="#E30A18"/>
<path fill-rule="evenodd" clip-rule="evenodd" d="M0.398438 41.5883C0.398438 41.2569 0.667067 40.9883 0.998438 40.9883H6.11366C6.44503 40.9883 6.71366 41.2569 6.71366 41.5883C6.71366 41.9197 6.44503 42.1883 6.11366 42.1883H0.998438C0.667067 42.1883 0.398438 41.9197 0.398438 41.5883Z" fill="#E30A18"/>
<path fill-rule="evenodd" clip-rule="evenodd" d="M8.91016 39.7055C8.91016 39.3741 9.17879 39.1055 9.51016 39.1055H14.6254C14.9568 39.1055 15.2254 39.3741 15.2254 39.7055C15.2254 40.0368 14.9568 40.3055 14.6254 40.3055H9.51016C9.17879 40.3055 8.91016 40.0368 8.91016 39.7055Z" fill="#E30A18"/>
<path fill-rule="evenodd" clip-rule="evenodd" d="M8.91016 41.5883C8.91016 41.2569 9.17879 40.9883 9.51016 40.9883H12.5949C12.9263 40.9883 13.1949 41.2569 13.1949 41.5883C13.1949 41.9197 12.9263 42.1883 12.5949 42.1883H9.51016C9.17879 42.1883 8.91016 41.9197 8.91016 41.5883Z" fill="#E30A18"/>
<path fill-rule="evenodd" clip-rule="evenodd" d="M25.8164 39.7055C25.8164 39.3741 26.085 39.1055 26.4164 39.1055H29.9697C30.3011 39.1055 30.5697 39.3741 30.5697 39.7055C30.5697 40.0368 30.3011 40.3055 29.9697 40.3055H26.4164C26.085 40.3055 25.8164 40.0368 25.8164 39.7055Z" fill="#E30A18"/>
<path fill-rule="evenodd" clip-rule="evenodd" d="M25.8164 41.5883C25.8164 41.2569 26.085 40.9883 26.4164 40.9883H31.5316C31.863 40.9883 32.1316 41.2569 32.1316 41.5883C32.1316 41.9197 31.863 42.1883 31.5316 42.1883H26.4164C26.085 42.1883 25.8164 41.9197 25.8164 41.5883Z" fill="#E30A18"/>
<path fill-rule="evenodd" clip-rule="evenodd" d="M34.332 39.7055C34.332 39.3741 34.6007 39.1055 34.932 39.1055H39.7351C40.0664 39.1055 40.3351 39.3741 40.3351 39.7055C40.3351 40.0368 40.0664 40.3055 39.7351 40.3055H34.932C34.6007 40.3055 34.332 40.0368 34.332 39.7055Z" fill="#E30A18"/>
<path fill-rule="evenodd" clip-rule="evenodd" d="M34.332 41.5883C34.332 41.2569 34.6007 40.9883 34.932 40.9883H38.9929C39.3243 40.9883 39.5929 41.2569 39.5929 41.5883C39.5929 41.9197 39.3243 42.1883 38.9929 42.1883H34.932C34.6007 42.1883 34.332 41.9197 34.332 41.5883Z" fill="#E30A18"/>
</svg>
