<svg width="23" height="44" viewBox="0 0 23 44" fill="none" xmlns="http://www.w3.org/2000/svg">
<path fill-rule="evenodd" clip-rule="evenodd" d="M6.64866 9.92773C3.80526 9.92773 1.5 12.2326 1.5 15.0764V29.1934C1.5 32.0368 3.80487 34.3421 6.64866 34.3421H16.3513C19.1947 34.3421 21.5 32.0368 21.5 29.193V15.0764C21.5 12.233 19.1951 9.92773 16.3513 9.92773H6.64866ZM0.5 15.0764C0.5 11.6803 3.25303 8.92773 6.64866 8.92773H16.3513C19.7474 8.92773 22.5 11.6808 22.5 15.0764V29.193C22.5 32.5891 19.747 35.3421 16.3513 35.3421H6.64866C3.25254 35.3421 0.5 32.5891 0.5 29.1934V15.0764Z" fill="#E30A18"/>
<path fill-rule="evenodd" clip-rule="evenodd" d="M1.20312 12.3535C1.20312 12.0774 1.42698 11.8535 1.70312 11.8535H21.3069C21.583 11.8535 21.8069 12.0774 21.8069 12.3535C21.8069 12.6297 21.583 12.8535 21.3069 12.8535H1.70312C1.42698 12.8535 1.20312 12.6297 1.20312 12.3535Z" fill="#E30A18"/>
<path fill-rule="evenodd" clip-rule="evenodd" d="M1.20312 31.8418C1.20312 31.5657 1.42698 31.3418 1.70312 31.3418H21.3069C21.583 31.3418 21.8069 31.5657 21.8069 31.8418C21.8069 32.1179 21.583 32.3418 21.3069 32.3418H1.70312C1.42698 32.3418 1.20312 32.1179 1.20312 31.8418Z" fill="#E30A18"/>
<path fill-rule="evenodd" clip-rule="evenodd" d="M11.5797 19.207C10.3405 19.207 9.33594 20.2116 9.33594 21.4508C9.33594 22.69 10.3405 23.6946 11.5797 23.6946C12.8189 23.6946 13.8235 22.69 13.8235 21.4508C13.8235 20.2116 12.8189 19.207 11.5797 19.207ZM8.33594 21.4508C8.33594 19.6593 9.78824 18.207 11.5797 18.207C13.3712 18.207 14.8235 19.6593 14.8235 21.4508C14.8235 23.2423 13.3712 24.6946 11.5797 24.6946C9.78824 24.6946 8.33594 23.2423 8.33594 21.4508Z" fill="#E30A18"/>
<path fill-rule="evenodd" clip-rule="evenodd" d="M8.30126 16.2168C7.84579 16.2168 7.47656 16.586 7.47656 17.0415C7.47656 17.497 7.84579 17.8662 8.30126 17.8662C8.75673 17.8662 9.12597 17.497 9.12597 17.0415C9.12597 16.586 8.75673 16.2168 8.30126 16.2168ZM6.47656 17.0415C6.47656 16.0338 7.29349 15.2168 8.30126 15.2168C9.30901 15.2168 10.126 16.0337 10.126 17.0415C10.126 18.0493 9.30901 18.8662 8.30126 18.8662C7.29349 18.8662 6.47656 18.0493 6.47656 17.0415Z" fill="#E30A18"/>
<path fill-rule="evenodd" clip-rule="evenodd" d="M5.52495 20.8262C4.95457 20.8262 4.49219 21.2886 4.49219 21.8589C4.49219 22.4293 4.95457 22.8917 5.52495 22.8917C6.09532 22.8917 6.55771 22.4293 6.55771 21.8589C6.55771 21.2886 6.09532 20.8262 5.52495 20.8262ZM3.49219 21.8589C3.49219 20.7363 4.40228 19.8262 5.52495 19.8262C6.64761 19.8262 7.55771 20.7363 7.55771 21.8589C7.55771 22.9816 6.64761 23.8917 5.52495 23.8917C4.40228 23.8917 3.49219 22.9816 3.49219 21.8589Z" fill="#E30A18"/>
<path fill-rule="evenodd" clip-rule="evenodd" d="M8.42352 25.5215C7.65459 25.5215 7.03125 26.1448 7.03125 26.9137C7.03125 27.6826 7.65459 28.306 8.42352 28.306C9.19243 28.306 9.81576 27.6827 9.81576 26.9137C9.81576 26.1448 9.19243 25.5215 8.42352 25.5215ZM6.03125 26.9137C6.03125 25.5925 7.10232 24.5215 8.42352 24.5215C9.74472 24.5215 10.8158 25.5925 10.8158 26.9137C10.8158 28.2349 9.74472 29.306 8.42352 29.306C7.10232 29.306 6.03125 28.2349 6.03125 26.9137Z" fill="#E30A18"/>
<path fill-rule="evenodd" clip-rule="evenodd" d="M15.5403 15.875C14.8967 15.875 14.375 16.3967 14.375 17.0403C14.375 17.6839 14.8967 18.2056 15.5403 18.2056C16.1839 18.2056 16.7056 17.6839 16.7056 17.0403C16.7056 16.3967 16.1839 15.875 15.5403 15.875ZM13.375 17.0403C13.375 15.8444 14.3444 14.875 15.5403 14.875C16.7362 14.875 17.7056 15.8444 17.7056 17.0403C17.7056 18.2362 16.7362 19.2056 15.5403 19.2056C14.3444 19.2056 13.375 18.2362 13.375 17.0403Z" fill="#E30A18"/>
<path fill-rule="evenodd" clip-rule="evenodd" d="M17.4511 21.3066C16.818 21.3066 16.3047 21.8199 16.3047 22.4531C16.3047 23.0863 16.818 23.5995 17.4511 23.5995C18.0843 23.5995 18.5976 23.0862 18.5976 22.4531C18.5976 21.8199 18.0843 21.3066 17.4511 21.3066ZM15.3047 22.4531C15.3047 21.2676 16.2657 20.3066 17.4511 20.3066C18.6366 20.3066 19.5976 21.2676 19.5976 22.4531C19.5976 23.6385 18.6366 24.5995 17.4511 24.5995C16.2657 24.5995 15.3047 23.6385 15.3047 22.4531Z" fill="#E30A18"/>
<path fill-rule="evenodd" clip-rule="evenodd" d="M14.0044 26.2793C13.5489 26.2793 13.1797 26.6485 13.1797 27.104C13.1797 27.5595 13.5489 27.9287 14.0044 27.9287C14.4599 27.9287 14.8291 27.5595 14.8291 27.104C14.8291 26.6485 14.4599 26.2793 14.0044 26.2793ZM12.1797 27.104C12.1797 26.0962 12.9966 25.2793 14.0044 25.2793C15.0122 25.2793 15.8291 26.0963 15.8291 27.104C15.8291 28.1118 15.0122 28.9287 14.0044 28.9287C12.9966 28.9287 12.1797 28.1118 12.1797 27.104Z" fill="#E30A18"/>
<path fill-rule="evenodd" clip-rule="evenodd" d="M8.27273 1.5C7.62989 1.5 7.09052 1.98596 7.02397 2.62576L6.36731 8.92756H16.3189L15.6622 2.62584C15.5957 1.98597 15.0567 1.5 14.4135 1.5H8.27273ZM6.02934 2.5222C6.14894 1.37294 7.11772 0.5 8.27273 0.5H14.4135C15.569 0.5 16.5373 1.37306 16.6568 2.52229L17.371 9.37574C17.3857 9.51661 17.3399 9.65709 17.2451 9.76229C17.1503 9.8675 17.0153 9.92756 16.8737 9.92756H5.8125C5.67088 9.92756 5.53589 9.8675 5.44108 9.76229C5.34627 9.65709 5.30052 9.51661 5.31519 9.37574L6.02934 2.5222C6.02935 2.52217 6.02934 2.52223 6.02934 2.5222Z" fill="#E30A18"/>
<path fill-rule="evenodd" clip-rule="evenodd" d="M5.44108 34.552C5.53589 34.4468 5.67088 34.3867 5.8125 34.3867H16.8737C17.0153 34.3867 17.1503 34.4468 17.2451 34.552C17.3399 34.6572 17.3857 34.7977 17.371 34.9385L16.6568 41.792C16.5373 42.9413 15.5685 43.8143 14.4135 43.8143H8.27273C7.1172 43.8143 6.14893 42.9413 6.02934 41.7921C6.02934 41.7921 6.02935 41.7921 6.02934 41.7921L5.31519 34.9385C5.30052 34.7977 5.34627 34.6572 5.44108 34.552ZM6.36731 35.3867L7.02396 41.6884C7.09052 42.3283 7.62952 42.8143 8.27273 42.8143H14.4135C15.0563 42.8143 15.5957 42.3283 15.6622 41.6885L16.3189 35.3867H6.36731Z" fill="#E30A18"/>
<path fill-rule="evenodd" clip-rule="evenodd" d="M6.03125 4.38086C6.03125 4.10472 6.25511 3.88086 6.53125 3.88086H16.043C16.3191 3.88086 16.543 4.10472 16.543 4.38086C16.543 4.657 16.3191 4.88086 16.043 4.88086H6.53125C6.25511 4.88086 6.03125 4.657 6.03125 4.38086Z" fill="#E30A18"/>
<path fill-rule="evenodd" clip-rule="evenodd" d="M6.03125 6.75C6.03125 6.47386 6.25511 6.25 6.53125 6.25H16.438C16.7142 6.25 16.938 6.47386 16.938 6.75C16.938 7.02614 16.7142 7.25 16.438 7.25H6.53125C6.25511 7.25 6.03125 7.02614 6.03125 6.75Z" fill="#E30A18"/>
<path fill-rule="evenodd" clip-rule="evenodd" d="M6.25391 40.5469C6.25391 40.2707 6.47776 40.0469 6.75391 40.0469H16.2656C16.5418 40.0469 16.7656 40.2707 16.7656 40.5469C16.7656 40.823 16.5418 41.0469 16.2656 41.0469H6.75391C6.47776 41.0469 6.25391 40.823 6.25391 40.5469Z" fill="#E30A18"/>
<path fill-rule="evenodd" clip-rule="evenodd" d="M5.85547 38.1777C5.85547 37.9016 6.07933 37.6777 6.35547 37.6777H16.2623C16.5384 37.6777 16.7623 37.9016 16.7623 38.1777C16.7623 38.4539 16.5384 38.6777 16.2623 38.6777H6.35547C6.07933 38.6777 5.85547 38.4539 5.85547 38.1777Z" fill="#E30A18"/>
</svg>
