<svg width="23" height="40" viewBox="0 0 23 40" fill="none" xmlns="http://www.w3.org/2000/svg">
<path fill-rule="evenodd" clip-rule="evenodd" d="M3.41106 1.60039C2.41018 1.60039 1.59844 2.41213 1.59844 3.41301V36.4659C1.59844 37.4668 2.41018 38.2785 3.41106 38.2785H19.5756C20.5765 38.2785 21.3882 37.4668 21.3882 36.4659V3.41301C21.3882 2.41213 20.5765 1.60039 19.5756 1.60039H3.41106ZM0.398438 3.41301C0.398438 1.74939 1.74744 0.400391 3.41106 0.400391H19.5756C21.2392 0.400391 22.5882 1.74939 22.5882 3.41301V36.4659C22.5882 38.1295 21.2392 39.4785 19.5756 39.4785H3.41106C1.74744 39.4785 0.398438 38.1295 0.398438 36.4659V3.41301Z" fill="#E30A18"/>
<path fill-rule="evenodd" clip-rule="evenodd" d="M0.398438 7.65859C0.398438 7.32722 0.667067 7.05859 0.998438 7.05859H21.9882C22.3196 7.05859 22.5882 7.32722 22.5882 7.65859C22.5882 7.98996 22.3196 8.25859 21.9882 8.25859H0.998438C0.667067 8.25859 0.398438 7.98996 0.398438 7.65859Z" fill="#E30A18"/>
<path fill-rule="evenodd" clip-rule="evenodd" d="M0.398438 31.4965C0.398438 31.1651 0.667067 30.8965 0.998438 30.8965H21.9882C22.3196 30.8965 22.5882 31.1651 22.5882 31.4965C22.5882 31.8279 22.3196 32.0965 21.9882 32.0965H0.998438C0.667067 32.0965 0.398438 31.8279 0.398438 31.4965Z" fill="#E30A18"/>
<path fill-rule="evenodd" clip-rule="evenodd" d="M8.86719 4.42617C8.86719 4.0948 9.13582 3.82617 9.46719 3.82617H13.5204C13.8518 3.82617 14.1204 4.0948 14.1204 4.42617C14.1204 4.75754 13.8518 5.02617 13.5204 5.02617H9.46719C9.13582 5.02617 8.86719 4.75754 8.86719 4.42617Z" fill="#E30A18"/>
<path fill-rule="evenodd" clip-rule="evenodd" d="M11.4931 34.1707C10.9451 34.1707 10.5008 34.615 10.5008 35.163C10.5008 35.7111 10.9451 36.1554 11.4931 36.1554C12.0412 36.1554 12.4854 35.7111 12.4854 35.163C12.4854 34.615 12.0412 34.1707 11.4931 34.1707ZM9.30078 35.163C9.30078 33.9522 10.2823 32.9707 11.4931 32.9707C12.7039 32.9707 13.6854 33.9522 13.6854 35.163C13.6854 36.3738 12.7039 37.3554 11.4931 37.3554C10.2823 37.3554 9.30078 36.3738 9.30078 35.163Z" fill="#E30A18"/>
</svg>
