<svg width="43" height="36" fill="none" xmlns="http://www.w3.org/2000/svg"><path fill-rule="evenodd" clip-rule="evenodd" d="M21.456 10.575c-5.425 0-9.822 4.398-9.822 9.823 0 5.424 4.397 9.822 9.822 9.822 5.425 0 9.823-4.398 9.823-9.822 0-5.425-4.398-9.823-9.823-9.823zm-11.022 9.823c0-6.088 4.934-11.023 11.022-11.023S32.48 14.31 32.48 20.398c0 6.087-4.935 11.022-11.023 11.022s-11.022-4.935-11.022-11.023z" fill="#E30A18"/><path fill-rule="evenodd" clip-rule="evenodd" d="M21.46 14.087a6.311 6.311 0 100 12.622 6.311 6.311 0 000-12.622zm-7.51 6.31a7.511 7.511 0 1115.022.001 7.511 7.511 0 01-15.023 0z" fill="#E30A18"/><path fill-rule="evenodd" clip-rule="evenodd" d="M14.24 2.14C14.505 1.023 15.732.4 16.911.4h9.09c1.18 0 2.406.622 2.673 1.74l.91 3.81h12.331a.6.6 0 01.6.6v27.986a.6.6 0 01-.6.6H.998a.6.6 0 01-.6-.6V6.549a.6.6 0 01.6-.6H13.33l.91-3.808zm2.672-.54c-.883 0-1.42.458-1.506.82l-1.02 4.269a.6.6 0 01-.583.46H1.598v26.787h39.718V7.149H29.111a.6.6 0 01-.583-.46l-1.02-4.27c-.086-.36-.622-.819-1.506-.819h-9.09z" fill="#E30A18"/><path fill-rule="evenodd" clip-rule="evenodd" d="M17.84 5.246a.6.6 0 01.6-.6h6.031a.6.6 0 110 1.2H18.44a.6.6 0 01-.6-.6zM29.387 26.391a.6.6 0 01.6-.6h11.93a.6.6 0 110 1.2h-11.93a.6.6 0 01-.6-.6zM.398 26.391a.6.6 0 01.6-.6h11.76a.6.6 0 110 1.2H.998a.6.6 0 01-.6-.6zM6.675 2.807a.8.8 0 00-.8.8V5.95h3.288V3.607a.8.8 0 00-.8-.8H6.676zm-2 .8a2 2 0 012-2h1.689a2 2 0 012 2V6.55a.6.6 0 01-.6.6H5.275a.6.6 0 01-.6-.6V3.607zM31.504 3.8a.6.6 0 01.6-.6h7.334a.6.6 0 01.6.6v2.75a.6.6 0 01-.6.6h-7.334a.6.6 0 01-.6-.6V3.8zm1.2.6v1.55h6.134V4.4h-6.134zM34.594 9.348a.6.6 0 01.6-.6h4.053a.6.6 0 01.6.6v4.053a.6.6 0 01-.6.6h-4.053a.6.6 0 01-.6-.6V9.348zm1.2.6v2.853h2.853V9.948h-2.853z" fill="#E30A18"/></svg>