<svg width="49" height="43" fill="none" xmlns="http://www.w3.org/2000/svg"><path fill-rule="evenodd" clip-rule="evenodd" d="M7.213 1.6a1.79 1.79 0 00-1.79 1.79v22.232c0 .989.801 1.79 1.79 1.79h34.375a1.79 1.79 0 001.79-1.79V3.391a1.79 1.79 0 00-1.79-1.79H7.213zm-2.99 1.79A2.99 2.99 0 017.213.4h34.375a2.99 2.99 0 012.99 2.99v22.232a2.99 2.99 0 01-2.99 2.99H7.213a2.99 2.99 0 01-2.99-2.99V3.391z" fill="#E30A18"/><path fill-rule="evenodd" clip-rule="evenodd" d="M6.973 3.965a.6.6 0 01.6-.6H41.23a.6.6 0 01.6.6V25.05a.6.6 0 01-.6.6H7.573a.6.6 0 01-.6-.6V3.965zm1.2.6V24.45H40.63V4.565H8.173zM6.97 28.612a2.268 2.268 0 00-2.187 1.66l-2.934 8.231h45.103l-2.933-8.23a2.268 2.268 0 00-2.187-1.66H6.969zm-3.323 1.273a3.468 3.468 0 013.322-2.473h34.863a3.468 3.468 0 013.322 2.473l3.214 9.017a.6.6 0 01-.565.801H.998a.6.6 0 01-.565-.801l3.214-9.017z" fill="#E30A18"/><path fill-rule="evenodd" clip-rule="evenodd" d="M6.328 30.784a.6.6 0 01.576-.43H41.9a.6.6 0 01.576.43l.956 3.251a.6.6 0 01-.576.77H5.948a.6.6 0 01-.576-.77l.956-3.25zm1.025.77l-.604 2.05h35.305l-.603-2.05H7.353zM.398 39.082a.6.6 0 01.6-.6h46.805a.6.6 0 01.6.6v.287a3.469 3.469 0 01-3.468 3.469H3.867a3.469 3.469 0 01-3.469-3.469v-.287zm1.222.6a2.27 2.27 0 002.247 1.956h41.068a2.27 2.27 0 002.247-1.956H1.62z" fill="#E30A18"/><path fill-rule="evenodd" clip-rule="evenodd" d="M18.566 39.08a.6.6 0 01.6-.6h10.47a.6.6 0 01.6.6v3.156a.6.6 0 01-.6.6h-10.47a.6.6 0 01-.6-.6V39.08zm1.2.6v1.956h9.27V39.68h-9.27z" fill="#E30A18"/></svg>