<svg width="50" height="46" fill="none" xmlns="http://www.w3.org/2000/svg"><path fill-rule="evenodd" clip-rule="evenodd" d="M3.929 1.6a2.33 2.33 0 00-2.33 2.33v27.253a2.33 2.33 0 002.33 2.33h29.065a.6.6 0 010 1.2H3.929a3.53 3.53 0 01-3.53-3.53V3.931A3.53 3.53 0 013.928.4h42.139a3.53 3.53 0 013.53 3.53v27.253a3.53 3.53 0 01-3.53 3.53h-9.266a.6.6 0 110-1.2h9.266a2.33 2.33 0 002.33-2.33V3.93a2.33 2.33 0 00-2.33-2.33H3.928z" fill="#E30A18"/><path fill-rule="evenodd" clip-rule="evenodd" d="M7.73 7.543a.6.6 0 01.6-.6h37.301a.6.6 0 01.6.6v22.938a.6.6 0 01-.6.6H35.077a.6.6 0 010-1.2h9.954V8.143h-36.1v21.738h22.346a.6.6 0 010 1.2H8.33a.6.6 0 01-.6-.6V7.543z" fill="#E30A18"/><path fill-rule="evenodd" clip-rule="evenodd" d="M.398 7.543a.6.6 0 01.6-.6h48a.6.6 0 110 1.2h-48a.6.6 0 01-.6-.6zM26.232 15.746a.6.6 0 01.698.139l3.805 4.17a.6.6 0 01.1.149L41.093 42.03a2.271 2.271 0 01-4.11 1.93L26.727 22.136a.596.596 0 01-.052-.172l-.782-5.59a.6.6 0 01.34-.627zm1.117 2.378l.501 3.583 10.22 21.745a1.07 1.07 0 101.937-.911l-10.22-21.745-2.438-2.672z" fill="#E30A18"/></svg>