<svg width="45" height="44" fill="none" xmlns="http://www.w3.org/2000/svg"><path fill-rule="evenodd" clip-rule="evenodd" d="M.398 29.67a.6.6 0 01.6-.6h10.739a.6.6 0 01.6.6v3.402a.6.6 0 01-.6.6H.997a.6.6 0 01-.6-.6V29.67zm1.2.6v2.202h9.538V30.27H1.598zM13.168 7.909a.6.6 0 01.6-.6h10.738a.6.6 0 01.6.6v3.401a.6.6 0 01-.6.6H13.768a.6.6 0 01-.6-.6V7.91zm1.2.6v2.201h9.538V8.51h-9.538zM34.523 1.996a.6.6 0 01.6-.6h8.005a.6.6 0 01.6.6v3.402a.6.6 0 01-.6.6h-8.005a.6.6 0 01-.6-.6V1.996zm1.2.6v2.202h6.805V2.596h-6.805zM11.098 23.727a.6.6 0 01.6-.6h24.795a.6.6 0 01.6.6v3.402a.6.6 0 01-.6.6H11.698a.6.6 0 01-.6-.6v-3.402zm1.2.6v2.202h23.595v-2.202H12.298zM2.625 17.784a.6.6 0 01.6-.6h13.393a.6.6 0 01.6.6v3.401a.6.6 0 01-.6.6H3.225a.6.6 0 01-.6-.6v-3.401zm1.2.6v2.201h12.193v-2.201H3.825zM25.426 12.696a.6.6 0 01.6-.6H40.59a.6.6 0 01.6.6v3.402a.6.6 0 01-.6.6H26.026a.6.6 0 01-.6-.6v-3.402zm1.2.6v2.202H39.99v-2.202H26.626z" fill="#E30A18"/><path fill-rule="evenodd" clip-rule="evenodd" d="M20.873.4a.6.6 0 01.6.6v41.546a.6.6 0 11-1.2 0V1a.6.6 0 01.6-.6z" fill="#E30A18"/><path fill-rule="evenodd" clip-rule="evenodd" d="M.398 37.393a.6.6 0 01.6-.6h43.03a.6.6 0 110 1.2H.998a.6.6 0 01-.6-.6zM.398 39.706a.6.6 0 01.6-.6h5.116a.6.6 0 110 1.2H.998a.6.6 0 01-.6-.6zM.398 41.588a.6.6 0 01.6-.6h5.116a.6.6 0 110 1.2H.998a.6.6 0 01-.6-.6zM8.91 39.706a.6.6 0 01.6-.6h5.115a.6.6 0 110 1.2H9.51a.6.6 0 01-.6-.6zM8.91 41.588a.6.6 0 01.6-.6h3.085a.6.6 0 110 1.2H9.51a.6.6 0 01-.6-.6zM25.816 39.706a.6.6 0 01.6-.6h3.554a.6.6 0 110 1.2h-3.554a.6.6 0 01-.6-.6zM25.816 41.588a.6.6 0 01.6-.6h5.116a.6.6 0 110 1.2h-5.116a.6.6 0 01-.6-.6zM34.332 39.706a.6.6 0 01.6-.6h4.803a.6.6 0 010 1.2h-4.803a.6.6 0 01-.6-.6zM34.332 41.588a.6.6 0 01.6-.6h4.06a.6.6 0 110 1.2h-4.06a.6.6 0 01-.6-.6z" fill="#E30A18"/></svg>