<svg width="23" height="40" fill="none" xmlns="http://www.w3.org/2000/svg"><path fill-rule="evenodd" clip-rule="evenodd" d="M3.411 1.6c-1 0-1.813.812-1.813 1.813v33.053c0 1 .812 1.813 1.813 1.813h16.165c1 0 1.812-.812 1.812-1.813V3.413c0-1-.812-1.813-1.812-1.813H3.41zM.398 3.413A3.013 3.013 0 013.411.4h16.165a3.013 3.013 0 013.012 3.013v33.053a3.013 3.013 0 01-3.012 3.012H3.41a3.013 3.013 0 01-3.013-3.012V3.413z" fill="#E30A18"/><path fill-rule="evenodd" clip-rule="evenodd" d="M.398 7.659a.6.6 0 01.6-.6h20.99a.6.6 0 110 1.2H.998a.6.6 0 01-.6-.6zM.398 31.497a.6.6 0 01.6-.6h20.99a.6.6 0 110 1.2H.998a.6.6 0 01-.6-.6zM8.867 4.426a.6.6 0 01.6-.6h4.053a.6.6 0 110 1.2H9.467a.6.6 0 01-.6-.6zM11.493 34.17a.992.992 0 100 1.985.992.992 0 000-1.984zm-2.192.993a2.192 2.192 0 114.384 0 2.192 2.192 0 01-4.384 0z" fill="#E30A18"/></svg>