<svg width="23" height="44" fill="none" xmlns="http://www.w3.org/2000/svg"><path fill-rule="evenodd" clip-rule="evenodd" d="M6.649 9.928A5.149 5.149 0 001.5 15.076v14.117a5.149 5.149 0 005.149 5.15h9.702a5.149 5.149 0 005.149-5.15V15.076a5.149 5.149 0 00-5.149-5.148H6.65zM.5 15.076a6.149 6.149 0 016.149-6.148h9.702a6.149 6.149 0 016.149 6.148v14.117a6.149 6.149 0 01-6.149 6.15H6.65A6.149 6.149 0 01.5 29.192V15.076z" fill="#E30A18"/><path fill-rule="evenodd" clip-rule="evenodd" d="M1.203 12.354a.5.5 0 01.5-.5h19.604a.5.5 0 010 1H1.703a.5.5 0 01-.5-.5zM1.203 31.842a.5.5 0 01.5-.5h19.604a.5.5 0 010 1H1.703a.5.5 0 01-.5-.5zM11.58 19.207a2.244 2.244 0 100 4.488 2.244 2.244 0 000-4.488zm-3.244 2.244a3.244 3.244 0 116.488 0 3.244 3.244 0 01-6.488 0z" fill="#E30A18"/><path fill-rule="evenodd" clip-rule="evenodd" d="M8.301 16.217a.825.825 0 100 1.65.825.825 0 000-1.65zm-1.824.825a1.825 1.825 0 113.649 0 1.825 1.825 0 01-3.65 0zM5.525 20.826a1.033 1.033 0 100 2.066 1.033 1.033 0 000-2.066zM3.492 21.86a2.033 2.033 0 114.066 0 2.033 2.033 0 01-4.066 0zM8.424 25.521a1.392 1.392 0 100 2.785 1.392 1.392 0 000-2.785zM6.03 26.915a2.392 2.392 0 114.785 0 2.392 2.392 0 01-4.785 0zM15.54 15.875a1.165 1.165 0 100 2.33 1.165 1.165 0 000-2.33zm-2.165 1.165a2.165 2.165 0 114.33 0 2.165 2.165 0 01-4.33 0zM17.451 21.307a1.146 1.146 0 100 2.293 1.146 1.146 0 000-2.293zm-2.146 1.146a2.146 2.146 0 114.293 0 2.146 2.146 0 01-4.293 0zM14.004 26.28a.825.825 0 100 1.649.825.825 0 000-1.65zm-1.824.824a1.825 1.825 0 113.649 0 1.825 1.825 0 01-3.65 0zM8.273 1.5c-.643 0-1.182.486-1.249 1.126l-.657 6.302h9.952l-.657-6.302A1.255 1.255 0 0014.414 1.5H8.273zM6.029 2.522A2.256 2.256 0 018.273.5h6.14c1.156 0 2.124.873 2.244 2.022l.714 6.854a.5.5 0 01-.497.552H5.813a.5.5 0 01-.498-.552l.714-6.854zM5.441 34.552a.5.5 0 01.372-.165h11.06a.5.5 0 01.498.551l-.714 6.854a2.256 2.256 0 01-2.243 2.022H8.273a2.255 2.255 0 01-2.244-2.022l-.714-6.854a.5.5 0 01.126-.386zm.926.835l.657 6.301c.067.64.606 1.126 1.249 1.126h6.14c.643 0 1.183-.486 1.25-1.126l.656-6.301H6.367z" fill="#E30A18"/><path fill-rule="evenodd" clip-rule="evenodd" d="M6.031 4.38a.5.5 0 01.5-.5h9.512a.5.5 0 010 1H6.531a.5.5 0 01-.5-.5zM6.031 6.75a.5.5 0 01.5-.5h9.907a.5.5 0 110 1H6.531a.5.5 0 01-.5-.5zM6.254 40.547a.5.5 0 01.5-.5h9.512a.5.5 0 110 1H6.754a.5.5 0 01-.5-.5zM5.855 38.178a.5.5 0 01.5-.5h9.907a.5.5 0 010 1H6.355a.5.5 0 01-.5-.5z" fill="#E30A18"/></svg>